<?xml version="1.0" encoding="utf-8"?>
<!-- Generator: Adobe Illustrator 28.3.0, SVG Export Plug-In . SVG Version: 6.00 Build 0)  -->
<svg version="1.1" id="Layer_1" xmlns="http://www.w3.org/2000/svg" xmlns:xlink="http://www.w3.org/1999/xlink" x="0px" y="0px"
	 width="835.59px" height="135.47px" viewBox="0 0 835.59 135.47" style="enable-background:new 0 0 835.59 135.47;"
	 xml:space="preserve">
<style type="text/css">
	.st0{fill:#68C7C1;}
	.st1{fill:#FACA78;}
	.st2{fill:#F47F5B;}
	.st3{fill:#DD5440;}
	.st4{fill:#794A3B;}
</style>
<path class="st0" d="M746.83,15.18c-38.27-8.61-68.13-4.84-88.75,11.2c-19.91,15.49-26.12,38.57-31.11,57.12
	c-4.8,17.85-8.22,28.96-17.47,32.23c-11.7,4.14-15.28,1.34-30.25-12.58c-14.72-13.68-36.97-34.36-82.98-55.27
	c-1.89-0.86-4.4-2.1-7.3-3.55C466.99,33.4,415.51,7.8,330.46,1.16C225.52-7.03,126.84,28.75,90.51,88.17
	c-4.25,6.95-10.5,6.62-28.41,2.02c-16.78-4.31-39.75-10.21-56.03,10.32c-1.58,1.99-3.51,3.84-6.07,5.18v19.13
	c7.54-1.74,14.4-5.84,20.18-13.13c8.58-10.82,19.82-8.59,37.44-4.06c16.21,4.17,36.38,9.35,48.25-10.07
	c15-24.53,44.28-45.98,82.45-60.39c41.7-15.75,90.36-21.99,140.74-18.06c81.56,6.37,129.07,29.99,151.9,41.35
	c3.05,1.52,5.69,2.83,7.86,3.82c43.35,19.69,64.3,39.17,78.17,52.06c11.51,10.7,20.59,19.14,34.07,19.14
	c4.29,0,9.03-0.86,14.44-2.77c18.64-6.59,23.83-25.88,28.85-44.53c4.74-17.6,9.63-35.8,24.78-47.59
	c16.17-12.58,40.98-15.22,73.75-7.85c25.7,5.78,56.54,17.85,91.65,35.87c0.35,0.18,0.71,0.32,1.07,0.45V48.98
	C802.06,32.25,772.22,20.89,746.83,15.18z"/>
<path class="st1" d="M761.82,15.18c-38.27-8.61-68.13-4.84-88.75,11.2c-19.91,15.49-26.12,38.57-31.11,57.12
	c-4.8,17.86-8.22,28.97-17.47,32.24c-11.7,4.14-15.28,1.34-30.25-12.58c-14.72-13.68-36.97-34.36-82.98-55.27
	c-1.89-0.86-4.4-2.11-7.3-3.55C481.98,33.4,430.49,7.8,345.45,1.16C240.51-7.03,141.83,28.75,105.5,88.17
	c-4.25,6.95-10.5,6.62-28.42,2.02c-16.78-4.31-39.75-10.21-56.03,10.32c-3.74,4.72-9.49,8.69-21.06,6.82v18.15
	c13.43,1.54,25.74-1.89,35.17-13.79c8.58-10.82,19.81-8.59,37.44-4.06c16.21,4.17,36.38,9.35,48.25-10.07
	c15-24.53,44.28-45.98,82.45-60.39c41.7-15.75,90.37-21.99,140.74-18.06c81.56,6.37,129.07,29.99,151.9,41.34
	c3.05,1.52,5.69,2.83,7.87,3.82c43.35,19.69,64.3,39.17,78.17,52.06c11.5,10.7,20.59,19.14,34.07,19.14c4.29,0,9.03-0.86,14.44-2.77
	c18.64-6.59,23.83-25.88,28.85-44.53c4.74-17.6,9.63-35.8,24.78-47.59c16.17-12.58,40.98-15.22,73.75-7.85
	c22.24,5,48.34,14.73,77.72,28.93V41.75C808.11,28.95,783.36,20.03,761.82,15.18z"/>
<path class="st2" d="M776.37,15.18c-38.27-8.61-68.13-4.84-88.75,11.2c-19.91,15.49-26.12,38.57-31.11,57.12
	c-4.8,17.86-8.22,28.96-17.47,32.24c-11.7,4.14-15.28,1.33-30.25-12.58c-14.72-13.68-36.97-34.36-82.98-55.27
	c-1.89-0.86-4.4-2.11-7.3-3.55C496.53,33.4,445.04,7.8,360,1.16C255.05-7.03,156.38,28.75,120.05,88.17
	c-4.25,6.95-10.5,6.62-28.42,2.02c-16.78-4.31-39.75-10.21-56.03,10.32c-5.06,6.38-13.78,11.39-35.61,2.45v19.19
	c18.94,6.25,36.96,5.64,49.72-10.45c8.58-10.82,19.81-8.59,37.44-4.06c16.21,4.17,36.38,9.35,48.25-10.07
	c15-24.53,44.28-45.98,82.45-60.39c41.7-15.75,90.37-21.99,140.74-18.06c81.56,6.37,129.07,29.99,151.9,41.34
	c3.05,1.52,5.69,2.83,7.87,3.82c43.35,19.69,64.3,39.17,78.17,52.06c11.51,10.7,20.59,19.14,34.07,19.14
	c4.29,0,9.03-0.86,14.44-2.77c18.64-6.59,23.83-25.88,28.85-44.53c4.74-17.6,9.63-35.8,24.78-47.59
	c16.17-12.58,40.98-15.22,73.75-7.85c18.5,4.16,39.67,11.6,63.17,22.15V35.23C813.87,25.88,794.04,19.15,776.37,15.18z"/>
<path class="st3" d="M794.05,15.18c-38.27-8.61-68.13-4.84-88.75,11.2c-19.91,15.49-26.12,38.57-31.11,57.12
	c-4.8,17.86-8.22,28.97-17.47,32.24c-11.7,4.14-15.28,1.33-30.25-12.58c-14.72-13.68-36.97-34.36-82.98-55.27
	c-1.89-0.86-4.4-2.11-7.3-3.55C514.21,33.4,462.73,7.8,377.69,1.16C272.74-7.03,174.06,28.75,137.73,88.17
	c-4.25,6.95-10.51,6.62-28.42,2.02c-16.78-4.31-39.75-10.21-56.03,10.32c-6.25,7.88-18.06,13.68-53.29-6.33v20.48
	c25,12.63,50.7,18.1,67.4-2.97c8.58-10.82,19.81-8.59,37.44-4.06c16.21,4.17,36.38,9.35,48.25-10.07
	c15-24.53,44.28-45.98,82.45-60.39c41.7-15.75,90.37-21.99,140.74-18.06c81.56,6.37,129.07,29.99,151.9,41.34
	c3.05,1.52,5.69,2.83,7.87,3.82c43.35,19.69,64.3,39.17,78.17,52.06c11.51,10.7,20.59,19.14,34.07,19.14
	c4.29,0,9.03-0.86,14.44-2.77c18.64-6.59,23.83-25.88,28.85-44.53c4.74-17.6,9.63-35.8,24.78-47.59
	c16.17-12.58,40.98-15.22,73.75-7.85c13.74,3.09,28.95,7.99,45.49,14.62V28.04C820.69,22.36,806.81,18.05,794.05,15.18z"/>
<path class="st4" d="M811.1,15.18c-38.27-8.61-68.13-4.84-88.75,11.2c-19.91,15.49-26.12,38.57-31.11,57.12
	c-4.8,17.86-8.22,28.96-17.47,32.24c-11.7,4.14-15.28,1.33-30.25-12.58c-14.72-13.68-36.97-34.36-82.98-55.27
	c-1.89-0.86-4.4-2.11-7.3-3.55C531.26,33.4,479.77,7.8,394.73,1.16C289.79-7.03,191.11,28.75,154.78,88.17
	c-4.25,6.95-10.5,6.62-28.42,2.02c-16.78-4.31-39.75-10.21-56.03,10.32c-7.11,8.97-21.42,15.25-69.27-16.14
	C0.73,84.14,0.37,83.94,0,83.77v21.25c29.74,18.34,63.91,32.58,84.45,6.67c8.58-10.82,19.81-8.59,37.44-4.06
	c16.21,4.17,36.38,9.35,48.25-10.07c15-24.53,44.28-45.98,82.45-60.39c41.7-15.75,90.36-21.99,140.74-18.06
	c81.56,6.37,129.07,29.99,151.9,41.34c3.05,1.52,5.69,2.83,7.87,3.82c43.35,19.69,64.3,39.17,78.17,52.06
	c11.51,10.7,20.59,19.14,34.07,19.14c4.29,0,9.03-0.86,14.44-2.77c18.64-6.59,23.83-25.88,28.85-44.53
	c4.74-17.6,9.63-35.8,24.78-47.59c16.17-12.58,40.98-15.22,73.75-7.85c8.88,2,18.38,4.76,28.44,8.24V22
	C827.04,19.21,818.86,16.92,811.1,15.18z"/>
</svg>
